<mxfile host="Electron" modified="2024-01-28T10:33:28.807Z" agent="Mozilla/5.0 (Windows NT 10.0; Win64; x64) AppleWebKit/537.36 (KHTML, like Gecko) draw.io/23.0.2 Chrome/120.0.6099.109 Electron/28.1.0 Safari/537.36" etag="UArSC_8Yh6l9FSzH8ihg" version="23.0.2" type="device">
  <diagram name="Page-1" id="Voe6LNNxKeTDKrgx2T1i">
    <mxGraphModel dx="1434" dy="836" grid="1" gridSize="10" guides="1" tooltips="1" connect="1" arrows="1" fold="1" page="1" pageScale="1" pageWidth="850" pageHeight="1100" math="0" shadow="0">
      <root>
        <mxCell id="0" />
        <mxCell id="1" parent="0" />
        <mxCell id="0N0sUUAl098COiESVfH4-1" value="S" style="ellipse;whiteSpace=wrap;html=1;aspect=fixed;fontStyle=1;fontSize=24;strokeWidth=2;gradientColor=#FFCCE6;" parent="1" vertex="1">
          <mxGeometry x="110" y="260" width="60" height="60" as="geometry" />
        </mxCell>
        <mxCell id="0N0sUUAl098COiESVfH4-2" value="1" style="ellipse;whiteSpace=wrap;html=1;aspect=fixed;fontStyle=1;fontSize=24;strokeWidth=2;gradientColor=#D5E8D4;" parent="1" vertex="1">
          <mxGeometry x="290" y="130" width="60" height="60" as="geometry" />
        </mxCell>
        <mxCell id="0N0sUUAl098COiESVfH4-3" value="2" style="ellipse;whiteSpace=wrap;html=1;aspect=fixed;fontStyle=1;fontSize=24;strokeWidth=2;gradientColor=#D5E8D4;" parent="1" vertex="1">
          <mxGeometry x="290" y="370" width="60" height="60" as="geometry" />
        </mxCell>
        <mxCell id="0N0sUUAl098COiESVfH4-4" value="3" style="ellipse;whiteSpace=wrap;html=1;aspect=fixed;fontStyle=1;fontSize=24;strokeWidth=2;gradientColor=#D5E8D4;" parent="1" vertex="1">
          <mxGeometry x="570" y="130" width="60" height="60" as="geometry" />
        </mxCell>
        <mxCell id="0N0sUUAl098COiESVfH4-5" value="4" style="ellipse;whiteSpace=wrap;html=1;aspect=fixed;fontStyle=1;fontSize=24;strokeWidth=2;gradientColor=#D5E8D4;" parent="1" vertex="1">
          <mxGeometry x="570" y="370" width="60" height="60" as="geometry" />
        </mxCell>
        <mxCell id="0N0sUUAl098COiESVfH4-6" value="T" style="ellipse;whiteSpace=wrap;html=1;aspect=fixed;fontStyle=1;fontSize=24;strokeWidth=2;gradientColor=#D4E1F5;" parent="1" vertex="1">
          <mxGeometry x="760" y="260" width="60" height="60" as="geometry" />
        </mxCell>
        <mxCell id="0N0sUUAl098COiESVfH4-8" value="" style="endArrow=classic;html=1;rounded=0;exitX=1;exitY=0.5;exitDx=0;exitDy=0;entryX=0;entryY=0.5;entryDx=0;entryDy=0;strokeWidth=2;fontSize=24;fontStyle=1" parent="1" source="0N0sUUAl098COiESVfH4-1" target="0N0sUUAl098COiESVfH4-2" edge="1">
          <mxGeometry x="-0.0052" width="50" height="50" relative="1" as="geometry">
            <mxPoint x="400" y="450" as="sourcePoint" />
            <mxPoint x="450" y="400" as="targetPoint" />
            <mxPoint as="offset" />
          </mxGeometry>
        </mxCell>
        <mxCell id="0N0sUUAl098COiESVfH4-9" value="" style="endArrow=classic;html=1;rounded=0;exitX=1;exitY=0.5;exitDx=0;exitDy=0;entryX=0;entryY=0.5;entryDx=0;entryDy=0;strokeWidth=2;fontSize=24;fontStyle=1" parent="1" source="0N0sUUAl098COiESVfH4-1" target="0N0sUUAl098COiESVfH4-3" edge="1">
          <mxGeometry width="50" height="50" relative="1" as="geometry">
            <mxPoint x="180" y="300" as="sourcePoint" />
            <mxPoint x="300" y="170" as="targetPoint" />
          </mxGeometry>
        </mxCell>
        <mxCell id="0N0sUUAl098COiESVfH4-11" value="" style="endArrow=classic;html=1;rounded=0;exitX=0.5;exitY=1;exitDx=0;exitDy=0;entryX=0.5;entryY=0;entryDx=0;entryDy=0;strokeWidth=2;fontSize=24;fontStyle=1" parent="1" source="0N0sUUAl098COiESVfH4-2" target="0N0sUUAl098COiESVfH4-3" edge="1">
          <mxGeometry width="50" height="50" relative="1" as="geometry">
            <mxPoint x="180" y="300" as="sourcePoint" />
            <mxPoint x="300" y="410" as="targetPoint" />
          </mxGeometry>
        </mxCell>
        <mxCell id="0N0sUUAl098COiESVfH4-12" value="" style="endArrow=classic;html=1;rounded=0;exitX=1;exitY=0.5;exitDx=0;exitDy=0;entryX=0;entryY=0.5;entryDx=0;entryDy=0;strokeWidth=2;fontSize=24;fontStyle=1" parent="1" source="0N0sUUAl098COiESVfH4-2" target="0N0sUUAl098COiESVfH4-4" edge="1">
          <mxGeometry width="50" height="50" relative="1" as="geometry">
            <mxPoint x="330" y="200" as="sourcePoint" />
            <mxPoint x="330" y="380" as="targetPoint" />
          </mxGeometry>
        </mxCell>
        <mxCell id="0N0sUUAl098COiESVfH4-13" value="" style="endArrow=classic;html=1;rounded=0;exitX=1;exitY=0.5;exitDx=0;exitDy=0;entryX=0;entryY=1;entryDx=0;entryDy=0;strokeWidth=2;fontSize=24;fontStyle=1" parent="1" source="0N0sUUAl098COiESVfH4-3" target="0N0sUUAl098COiESVfH4-4" edge="1">
          <mxGeometry width="50" height="50" relative="1" as="geometry">
            <mxPoint x="340" y="210" as="sourcePoint" />
            <mxPoint x="340" y="390" as="targetPoint" />
          </mxGeometry>
        </mxCell>
        <mxCell id="0N0sUUAl098COiESVfH4-14" value="" style="endArrow=classic;html=1;rounded=0;exitX=1;exitY=0.5;exitDx=0;exitDy=0;strokeWidth=2;fontSize=24;fontStyle=1" parent="1" source="0N0sUUAl098COiESVfH4-3" target="0N0sUUAl098COiESVfH4-5" edge="1">
          <mxGeometry width="50" height="50" relative="1" as="geometry">
            <mxPoint x="360" y="410" as="sourcePoint" />
            <mxPoint x="589" y="191" as="targetPoint" />
          </mxGeometry>
        </mxCell>
        <mxCell id="0N0sUUAl098COiESVfH4-16" value="" style="endArrow=classic;html=1;rounded=0;exitX=0.5;exitY=0;exitDx=0;exitDy=0;strokeWidth=2;fontSize=24;fontStyle=1" parent="1" source="0N0sUUAl098COiESVfH4-5" target="0N0sUUAl098COiESVfH4-4" edge="1">
          <mxGeometry width="50" height="50" relative="1" as="geometry">
            <mxPoint x="370" y="420" as="sourcePoint" />
            <mxPoint x="599" y="201" as="targetPoint" />
          </mxGeometry>
        </mxCell>
        <mxCell id="0N0sUUAl098COiESVfH4-17" value="" style="endArrow=classic;html=1;rounded=0;exitX=1;exitY=0.5;exitDx=0;exitDy=0;entryX=0;entryY=0;entryDx=0;entryDy=0;strokeWidth=2;fontSize=24;fontStyle=1" parent="1" source="0N0sUUAl098COiESVfH4-4" target="0N0sUUAl098COiESVfH4-6" edge="1">
          <mxGeometry width="50" height="50" relative="1" as="geometry">
            <mxPoint x="380" y="430" as="sourcePoint" />
            <mxPoint x="609" y="211" as="targetPoint" />
          </mxGeometry>
        </mxCell>
        <mxCell id="0N0sUUAl098COiESVfH4-18" value="" style="endArrow=classic;html=1;rounded=0;exitX=1;exitY=0.5;exitDx=0;exitDy=0;entryX=0;entryY=1;entryDx=0;entryDy=0;strokeWidth=2;fontSize=24;fontStyle=1" parent="1" source="0N0sUUAl098COiESVfH4-5" target="0N0sUUAl098COiESVfH4-6" edge="1">
          <mxGeometry x="-0.0046" width="50" height="50" relative="1" as="geometry">
            <mxPoint x="390" y="440" as="sourcePoint" />
            <mxPoint x="619" y="221" as="targetPoint" />
            <mxPoint as="offset" />
          </mxGeometry>
        </mxCell>
        <mxCell id="MoOHGExkR0wOvEK_Rird-1" value="Player 2" style="shape=umlActor;verticalLabelPosition=bottom;verticalAlign=top;html=1;outlineConnect=0;fontStyle=1;strokeWidth=2;strokeColor=#0000CC;" vertex="1" parent="1">
          <mxGeometry x="60" y="210" width="30" height="60" as="geometry" />
        </mxCell>
        <mxCell id="MoOHGExkR0wOvEK_Rird-4" value="Player 3" style="shape=umlActor;verticalLabelPosition=bottom;verticalAlign=top;html=1;outlineConnect=0;fontStyle=1;strokeWidth=2;strokeColor=#0000CC;" vertex="1" parent="1">
          <mxGeometry x="60" y="300" width="30" height="60" as="geometry" />
        </mxCell>
        <mxCell id="MoOHGExkR0wOvEK_Rird-5" value="Player 1" style="shape=umlActor;verticalLabelPosition=bottom;verticalAlign=top;html=1;outlineConnect=0;fontStyle=1;strokeWidth=2;strokeColor=#0000CC;" vertex="1" parent="1">
          <mxGeometry x="10" y="260" width="30" height="60" as="geometry" />
        </mxCell>
      </root>
    </mxGraphModel>
  </diagram>
</mxfile>
